<?xml version="1.0" encoding="UTF-8"?>
<!DOCTYPE svg PUBLIC "-//W3C//DTD SVG 1.1//EN" "http://www.w3.org/Graphics/SVG/1.1/DTD/svg11.dtd">
<!-- Creator: CorelDRAW 2017 -->
<svg xmlns="http://www.w3.org/2000/svg" xml:space="preserve" width="100%" height="100%" version="1.1" style="shape-rendering:geometricPrecision; text-rendering:geometricPrecision; image-rendering:optimizeQuality; fill-rule:evenodd; clip-rule:evenodd"
viewBox="0 0 4335 4335"
 xmlns:xlink="http://www.w3.org/1999/xlink">
 <defs>
  <style type="text/css">
   <![CDATA[
    .fil0 {fill:black}
   ]]>
  </style>
 </defs>
 <g id="Слой_x0020_1">
  <metadata id="CorelCorpID_0Corel-Layer"/>
  <g id="_1356876912352">
   <path class="fil0" d="M1098 428l0 1179 -720 0c-37,0 -73,36 -73,73l0 2103c0,57 112,44 146,44l575 0c9,-40 19,-77 36,-109l-648 0 0 -2001 684 0 0 1950c20,-14 39,-41 59,-65 30,-36 57,-42 57,-66l0 -3121 1899 0 0 3114c0,17 109,124 109,124l0 -1935 699 0 0 2001 -648 0c17,33 27,69 36,109l662 0c26,-2 58,-18 58,-44l0 -2103c0,-37 -36,-73 -73,-73l-735 0 0 -1215c0,-44 -44,-87 -87,-87l-1943 0c-58,0 -95,55 -95,124z"/>
   <path class="fil0" d="M1411 661l0 648c0,17 19,36 36,36l1419 0c34,0 51,-17 51,-51l0 -633c0,-17 -19,-36 -36,-36l-1433 0c-17,0 -36,19 -36,36z"/>
   <path class="fil0" d="M1724 2910c0,132 103,275 163,383 63,115 11,121 86,190 118,109 445,89 457,-93 4,-55 15,-67 36,-102l102 -167c140,-283 14,-290 14,-386 0,-48 9,-46 3,-89 -69,-470 -840,-392 -812,48 7,112 -49,115 -49,216z"/>
   <path class="fil0" d="M1236 3928l0 102 742 0c-18,-77 -186,-439 -204,-517 -20,2 -111,59 -153,80 -100,50 -311,116 -339,141 -41,36 -47,120 -47,193z"/>
   <path class="fil0" d="M2342 4030l742 0c0,-302 3,-291 -212,-363 -70,-23 -182,-73 -245,-111 -13,-8 -23,-14 -36,-22 -17,-11 -20,-18 -45,-20 -9,38 -32,89 -48,126 -20,44 -36,88 -52,130 -22,55 -92,215 -103,261z"/>
   <path class="fil0" d="M1993 1614l0 320 342 0 0 -320c0,-17 -5,-22 -22,-22l-298 0c-17,0 -22,5 -22,22z"/>
   <path class="fil0" d="M2539 1622l0 291c0,17 5,22 22,22l320 0 0 -320c0,-17 -5,-22 -22,-22l-291 0c-17,0 -29,12 -29,29z"/>
   <path class="fil0" d="M1447 1614l0 320 335 0 0 -320c0,-17 -5,-22 -22,-22l-291 0c-17,0 -22,5 -22,22z"/>
   <path class="fil0" d="M2029 3666c0,110 -4,116 73,116 -1,51 -50,194 -51,247l218 0c0,-33 -41,-203 -51,-247 87,0 73,-12 73,-131 0,-56 -127,-36 -226,-36 -24,0 -36,26 -36,51z"/>
   <path class="fil0" d="M1447 2553l160 0c18,-213 107,-256 160,-335l-320 0 0 335z"/>
   <path class="fil0" d="M2757 2553l124 0 0 -335 -284 0c49,73 143,129 160,335z"/>
   <path class="fil0" d="M661 2946l226 0c37,0 22,-72 22,-175 0,-17 -5,-22 -22,-22l-226 0 0 196z"/>
   <path class="fil0" d="M661 2560l226 0c37,0 22,-72 22,-175 0,-17 -5,-22 -22,-22l-226 0 0 196z"/>
   <path class="fil0" d="M3426 2924c0,17 5,22 22,22l204 0c37,0 22,-72 22,-175 0,-17 -5,-22 -22,-22l-226 0 0 175z"/>
   <path class="fil0" d="M661 2153c0,17 5,22 22,22l204 0c37,0 22,-72 22,-175 0,-17 -5,-22 -22,-22l-226 0 0 175z"/>
   <path class="fil0" d="M3426 2153c0,17 5,22 22,22l204 0c37,0 22,-72 22,-175 0,-17 -5,-22 -22,-22l-226 0 0 175z"/>
   <path class="fil0" d="M3426 2539c0,17 5,22 22,22l204 0c37,0 22,-72 22,-175 0,-17 -5,-22 -22,-22l-226 0 0 175z"/>
  </g>
 </g>
</svg>
