<svg xmlns="http://www.w3.org/2000/svg" version="1.1" xmlns:xlink="http://www.w3.org/1999/xlink" xmlns:svgjs="http://svgjs.dev/svgjs" viewBox="0 0 800 800"><defs><linearGradient x1="50%" y1="0%" x2="50%" y2="100%" id="ffflurry-grad" gradientTransform="rotate(270)"><stop stop-color="#0e0e13" stop-opacity="1" offset="0%"></stop><stop stop-color="hsl(52, 89%, 47%)" stop-opacity="1" offset="45%"></stop><stop stop-color="hsl(167, 89%, 33%)" stop-opacity="1" offset="100%"></stop></linearGradient></defs><rect width="100%" height="100%" fill="#0e0e13"></rect><g fill="url(#ffflurry-grad)"><rect width="152" height="1" x="96" y="486.5" rx="0.5" transform="rotate(50, 172, 487)" opacity="0.30"></rect><rect width="242" height="1" x="511" y="424.5" rx="0.5" transform="rotate(50, 632, 425)" opacity="0.07"></rect><rect width="73" height="1" x="234.5" y="341.5" rx="0.5" transform="rotate(50, 271, 342)" opacity="0.88"></rect><rect width="100" height="1" x="115" y="724.5" rx="0.5" transform="rotate(50, 165, 725)" opacity="0.49"></rect><rect width="85" height="1" x="138.5" y="235.5" rx="0.5" transform="rotate(50, 181, 236)" opacity="0.87"></rect><rect width="332" height="1" x="320" y="95.5" rx="0.5" transform="rotate(50, 486, 96)" opacity="0.30"></rect><rect width="190" height="1" x="592" y="742.5" rx="0.5" transform="rotate(50, 687, 743)" opacity="0.86"></rect><rect width="216" height="1" x="317" y="258.5" rx="0.5" transform="rotate(50, 425, 259)" opacity="0.39"></rect><rect width="292" height="1" x="322" y="723.5" rx="0.5" transform="rotate(50, 468, 724)" opacity="0.55"></rect><rect width="297" height="1" x="-64.5" y="89.5" rx="0.5" transform="rotate(50, 84, 90)" opacity="0.29"></rect><rect width="112" height="1" x="255" y="452.5" rx="0.5" transform="rotate(50, 311, 453)" opacity="0.68"></rect><rect width="192" height="1" x="356" y="374.5" rx="0.5" transform="rotate(50, 452, 375)" opacity="0.55"></rect><rect width="138" height="1" x="535" y="628.5" rx="0.5" transform="rotate(50, 604, 629)" opacity="0.52"></rect><rect width="62" height="1" x="711" y="571.5" rx="0.5" transform="rotate(50, 742, 572)" opacity="0.92"></rect><rect width="65" height="1" x="297.5" y="117.5" rx="0.5" transform="rotate(50, 330, 118)" opacity="0.74"></rect><rect width="159" height="1" x="-7.5" y="388.5" rx="0.5" transform="rotate(50, 72, 389)" opacity="0.66"></rect><rect width="161" height="1" x="140.5" y="72.5" rx="0.5" transform="rotate(50, 221, 73)" opacity="0.92"></rect><rect width="239" height="1" x="120.5" y="603.5" rx="0.5" transform="rotate(50, 240, 604)" opacity="0.19"></rect><rect width="85" height="1" x="-21.5" y="718.5" rx="0.5" transform="rotate(50, 21, 719)" opacity="0.65"></rect><rect width="347" height="1" x="400.5" y="255.5" rx="0.5" transform="rotate(50, 574, 256)" opacity="0.83"></rect><rect width="75" height="1" x="7.5" y="249.5" rx="0.5" transform="rotate(50, 45, 250)" opacity="0.78"></rect><rect width="93" height="1" x="307.5" y="32.5" rx="0.5" transform="rotate(50, 354, 33)" opacity="0.09"></rect><rect width="246" height="1" x="561" y="89.5" rx="0.5" transform="rotate(50, 684, 90)" opacity="0.88"></rect><rect width="118" height="1" x="17" y="728.5" rx="0.5" transform="rotate(50, 76, 729)" opacity="0.84"></rect><rect width="95" height="1" x="687.5" y="300.5" rx="0.5" transform="rotate(50, 735, 301)" opacity="0.25"></rect><rect width="198" height="1" x="443" y="534.5" rx="0.5" transform="rotate(50, 542, 535)" opacity="0.80"></rect><rect width="191" height="1" x="36.5" y="336.5" rx="0.5" transform="rotate(50, 132, 337)" opacity="0.96"></rect><rect width="56" height="1" x="18" y="468.5" rx="0.5" transform="rotate(50, 46, 469)" opacity="0.50"></rect><rect width="223" height="1" x="202.5" y="209.5" rx="0.5" transform="rotate(50, 314, 210)" opacity="0.75"></rect><rect width="104" height="1" x="391" y="476.5" rx="0.5" transform="rotate(50, 443, 477)" opacity="0.38"></rect><rect width="262" height="1" x="173" y="734.5" rx="0.5" transform="rotate(50, 304, 735)" opacity="0.76"></rect><rect width="158" height="1" x="312" y="588.5" rx="0.5" transform="rotate(50, 391, 589)" opacity="0.81"></rect><rect width="194" height="1" x="-27" y="588.5" rx="0.5" transform="rotate(50, 70, 589)" opacity="0.36"></rect></g></svg>