<?xml version="1.0" encoding="UTF-8"?>
<!DOCTYPE svg PUBLIC "-//W3C//DTD SVG 1.1//EN" "http://www.w3.org/Graphics/SVG/1.1/DTD/svg11.dtd">
<!-- Creator: CorelDRAW 2017 -->
<svg xmlns="http://www.w3.org/2000/svg" xml:space="preserve" width="100%" height="100%" version="1.1" style="shape-rendering:geometricPrecision; text-rendering:geometricPrecision; image-rendering:optimizeQuality; fill-rule:evenodd; clip-rule:evenodd"
viewBox="0 0 4335 4335"
 xmlns:xlink="http://www.w3.org/1999/xlink">
 <defs>
  <style type="text/css">
   <![CDATA[
    .fil0 {fill:black}
   ]]>
  </style>
 </defs>
 <g id="Слой_x0020_1">
  <metadata id="CorelCorpID_0Corel-Layer"/>
  <g id="_1769412072368">
   <path class="fil0" d="M3570 2980l444 0 0 1037 -444 0 0 -1037zm-444 74l296 0 0 759c-60,5 -475,128 -578,154 -50,13 -156,50 -200,50l-435 0c-33,0 -248,-118 -280,-137 -122,-74 -407,-210 -544,-289 -44,-26 -86,-44 -133,-71 -27,-15 -35,-23 -65,-37 -72,-35 -62,-13 -62,-133l528 0c9,108 135,222 250,222l926 0c81,0 143,-150 -46,-148l-584 0c-114,0 -289,23 -355,-34 -88,-77 -52,-208 46,-247 81,-31 267,-16 374,-15 118,1 134,-48 263,-126 290,-177 540,52 598,52zm296 -889c0,-138 90,-280 219,-336 146,-63 307,-31 413,75 21,21 62,81 75,110 44,101 44,201 0,302 -77,178 -293,269 -487,185 -79,-34 -151,-106 -185,-185 -15,-34 -34,-107 -34,-151zm-148 -28c0,262 136,454 364,524 92,29 80,-25 80,170 -183,0 -288,-29 -296,74 -62,0 -124,0 -185,0 -111,1 -77,0 -148,-37 -197,-104 -437,-120 -632,-2 -173,105 -125,114 -267,113 -116,-1 -273,-17 -358,21 -81,37 -157,109 -179,201l-28 0c-9,-40 -48,-121 -40,-151 14,-53 55,-75 59,-154 28,-623 -148,-1288 404,-1697 530,-393 1220,-234 1539,318 29,50 41,97 65,148 -208,48 -380,259 -380,472zm-1741 -417c-170,0 -333,-31 -333,74 0,103 148,74 306,74 -27,114 -9,538 -9,694 -28,6 -80,17 -102,28 24,-104 24,-153 -48,-220 -55,-52 -155,-64 -222,-13l-232 231c-26,26 -63,49 -63,95 0,45 29,74 74,74 86,0 260,-278 324,-278 21,0 28,6 28,28 0,47 -130,102 -130,176 0,91 95,74 157,74 57,0 177,-20 213,-37 0,69 4,129 -9,185l-602 0c-75,-1 -129,1 -129,74 0,45 29,74 74,74l593 0c1,61 32,91 37,148l-1074 0 0 -2222 444 0c7,79 72,148 157,148l426 0c85,0 151,-69 157,-148l444 0c0,64 4,52 -33,79 -16,12 -30,21 -43,31l-80 68c-50,50 -95,100 -137,159 -40,55 -83,121 -112,184 -22,47 -73,166 -77,219zm-556 -769l0 -120 444 0c0,101 14,148 -28,148l-389 0c-21,0 -28,-6 -28,-28zm1417 -306c44,10 91,37 139,37 60,0 106,-83 148,-111 43,29 88,111 148,111 47,0 94,-27 139,-37 -36,76 -1,58 -93,194l-250 -9c-62,0 -80,9 -139,9 -96,-144 -65,-137 -93,-194zm120 -130c-58,0 -278,-133 -278,19 0,256 65,248 93,352 -64,5 -106,42 -167,56 0,-66 -7,-111 -74,-111l-519 0c0,-61 14,-148 -74,-148l-593 0c-88,0 -74,87 -74,148l-519 0c-45,0 -74,29 -74,74l0 2370c0,45 29,74 74,74l667 0c0,228 -41,181 272,339l682 364c62,31 178,111 250,111 132,0 467,15 575,-17 33,-10 59,-16 95,-25l380 -102c67,-17 125,-35 191,-50 0,93 -20,194 74,194l593 0c45,0 74,-29 74,-74l0 -1185c0,-104 -138,-74 -296,-74 0,-234 -19,-112 161,-200 149,-73 284,-252 284,-439 0,-209 -74,-358 -226,-459 -66,-44 -139,-74 -230,-85 -90,-11 -34,-29 -125,-190 -114,-204 -265,-362 -469,-476 -49,-27 -168,-90 -229,-95 9,-34 42,-78 59,-126 20,-59 88,-300 -41,-300 -68,0 -146,56 -204,56 -30,0 -96,-130 -167,-130 -70,0 -137,130 -167,130z"/>
   <path class="fil0" d="M2607 1406c-212,49 -290,281 -159,446 30,38 91,69 133,89l148 74c49,29 100,56 100,122 0,136 -244,174 -289,30 -19,-61 16,-150 -81,-150 -133,0 -103,330 148,389 0,75 0,130 74,130 74,0 74,-55 74,-130 264,-61 276,-366 126,-478 -64,-47 -196,-108 -278,-148 -38,-19 -57,-35 -66,-83 -31,-155 238,-203 285,-52 19,61 -16,150 81,150 132,0 102,-331 -148,-389 0,-75 0,-130 -74,-130 -74,0 -74,55 -74,130z"/>
   <path class="fil0" d="M681 2091c0,45 29,74 74,74l519 0c99,0 99,-148 0,-148l-519 0c-45,0 -74,29 -74,74z"/>
   <path class="fil0" d="M3551 2314c0,67 73,105 127,63 23,-18 35,-38 62,-59l184 -168c26,-25 109,-95 109,-132 0,-67 -73,-105 -127,-63l-181 172c-31,30 -174,136 -174,187z"/>
   <path class="fil0" d="M903 1351c0,45 29,74 74,74l444 0c99,0 99,-148 0,-148l-444 0c-45,0 -74,29 -74,74z"/>
   <path class="fil0" d="M681 1795c0,104 138,74 296,74 99,0 99,-148 0,-148 -158,0 -296,-30 -296,74z"/>
   <path class="fil0" d="M3866 2323c0,106 150,110 155,8 5,-108 -155,-101 -155,-8z"/>
   <path class="fil0" d="M3644 2082c95,0 94,-157 0,-157 -47,0 -79,37 -81,75 -2,44 36,82 81,82z"/>
  </g>
 </g>
</svg>
