<?xml version="1.0" encoding="UTF-8"?>
<!DOCTYPE svg PUBLIC "-//W3C//DTD SVG 1.1//EN" "http://www.w3.org/Graphics/SVG/1.1/DTD/svg11.dtd">
<!-- Creator: CorelDRAW 2017 -->
<svg xmlns="http://www.w3.org/2000/svg" xml:space="preserve" width="100%" height="100%" version="1.1" style="shape-rendering:geometricPrecision; text-rendering:geometricPrecision; image-rendering:optimizeQuality; fill-rule:evenodd; clip-rule:evenodd"
viewBox="0 0 14393 10160"
 xmlns:xlink="http://www.w3.org/1999/xlink">
 <defs>
  <style type="text/css">
   <![CDATA[
    .str1 {stroke:black;stroke-width:16.93;stroke-dasharray:33.860000 50.790000}
    .str0 {stroke:black;stroke-width:20;stroke-dasharray:40.000000 60.000000}
    .fil30 {fill:none}
    .fil16 {fill:#0B0B0B}
    .fil25 {fill:#136D85}
    .fil18 {fill:#155766}
    .fil0 {fill:#21201B}
    .fil14 {fill:#227F91}
    .fil6 {fill:#358895}
    .fil15 {fill:#464543}
    .fil1 {fill:#49A8AA}
    .fil29 {fill:#519397}
    .fil10 {fill:#6AB9B6}
    .fil22 {fill:#6B6965}
    .fil5 {fill:#79C9BC}
    .fil26 {fill:#8EB5B5}
    .fil27 {fill:#999893}
    .fil12 {fill:#BCB432}
    .fil28 {fill:#C6B744}
    .fil7 {fill:#CDBE8E}
    .fil23 {fill:#D4ECEA}
    .fil2 {fill:#D6BC2C}
    .fil8 {fill:#D8D27C}
    .fil20 {fill:#D8D7D6}
    .fil31 {fill:#DADE8E}
    .fil4 {fill:#E3D2A2}
    .fil11 {fill:#E5D9B6}
    .fil24 {fill:#E8C747}
    .fil17 {fill:#E9E6E3}
    .fil3 {fill:#F05A39}
    .fil21 {fill:#F37C82}
    .fil13 {fill:#F58735}
    .fil9 {fill:#FAA332}
    .fil19 {fill:#FEF6EC}
   ]]>
  </style>
 </defs>
 <g id="Слой_x0020_1">
  <metadata id="CorelCorpID_0Corel-Layer"/>
  <path class="fil0" d="M3904 6026l1 1160 2 1354c38,302 287,298 479,298l2390 0 0 613 -910 0c-50,0 -101,-1 -151,0 -18,0 -70,3 -83,2 -129,-12 83,-2 -82,1l3 352 3469 -1 1 -344 -1230 -7c-12,-90 -17,-560 5,-613l2186 -2 -1 -300 -192 1 -4891 0 -707 -1c-21,-38 -12,-3224 -12,-3794 0,-149 -15,-407 5,-542l541 -2c-33,-144 4,-248 13,-331l1 -1015c-111,0 -41,2 -68,24 65,11 29,-27 45,31l0 992c-199,10 -528,-39 -667,58 -187,130 -146,329 -146,595 0,484 15,993 -1,1474z"/>
  <path class="fil1" d="M4907 4955c112,-34 1001,-12 1191,-12 397,0 795,0 1192,0 796,0 1614,-19 2407,2l-73 -89c65,1 118,30 165,51l-5 -699 593 -4 0 832 -458 -5 54 25c30,7 360,7 414,-14l-7 -847 -3743 7c23,62 136,31 43,198 143,44 161,136 162,311l127 -3 -2 184 -681 -2 4 -186 115 5c3,-179 16,-261 161,-311 -85,-188 16,-123 43,-202l-1703 4 -2 752z"/>
  <path class="fil2" d="M4907 5593l-6 23 6 2388 1545 19 -664 -994c25,-259 90,-370 243,-518 142,-137 319,-185 561,-176l-6 -1311 -1650 -5c15,34 765,15 809,15 237,0 633,24 846,-10l-13 369 -1642 -2c0,30 2,75 1,106 -1,23 -1,33 -7,56 -10,33 -6,21 -20,40z"/>
  <path class="fil3" d="M3303 4168c36,-196 8,-554 22,-769 28,-427 -23,-373 -395,-382 -272,7 -547,0 -819,1 -415,3 -328,-23 -328,917 0,135 -22,285 111,315 193,43 608,-25 825,9 -20,125 -48,195 12,331 34,77 111,181 209,211 -64,-600 371,-498 364,-633z"/>
  <path class="fil0" d="M4909 4203l1703 -4c-28,79 -128,14 -43,202 -145,50 -157,132 -161,311l88 -2c-2,-115 5,-211 123,-215 128,-4 139,94 136,214l90 4c-1,-175 -20,-268 -162,-311 93,-167 -20,-137 -43,-198l3743 -7 7 847 275 -6c-13,-216 -2,-470 -2,-690 1,-259 -48,-373 -262,-440l-617 -6 -4875 -1 0 303z"/>
  <path class="fil4" d="M9659 7909c-16,14 -201,25 -228,-3 -22,-32 -20,-127 -4,-161 40,-26 99,-12 161,-20 15,-44 43,-84 -4,-109 -51,-27 -33,23 -90,44 12,-128 184,-117 129,57 40,33 48,8 53,81 3,46 2,82 -17,110zm-2454 -730c-17,153 -124,309 -213,391 -47,43 -113,94 -179,124 -131,59 -78,17 -143,149 23,35 11,14 14,66 1,30 1,68 1,99l1289 5 1 -503 0 -192c31,-1 66,0 95,-3 43,-5 29,-10 53,-9l853 10c54,0 124,-10 152,-11 27,-1 94,11 139,10 30,72 5,560 7,690l511 4c2,-100 -17,-593 10,-640 -32,-53 -166,-139 -222,-180 -79,-59 -148,-125 -229,-177 -86,-16 -309,-7 -409,0 -6,0 -8,1 -14,1l-384 -8c-143,0 -136,12 -260,2 -317,-25 -740,-2 -1069,-2 0,74 31,125 -3,174z"/>
  <path class="fil1" d="M12116 7302c377,-60 683,226 733,541 63,393 -227,696 -546,746 -391,61 -695,-230 -740,-552 -55,-396 226,-683 553,-735zm-45 2069c2,3 5,4 6,10l59 186 76 209 85 -278c5,-18 11,-46 17,-62 2,-4 6,-17 8,-21 10,-22 5,-14 16,-28 -1,-30 125,-533 181,-568l176 -83c774,-463 468,-1719 -486,-1722 -1020,-3 -1292,1410 -350,1791 84,34 71,69 98,162 31,108 105,305 114,402z"/>
  <path class="fil5" d="M1685 6379c-70,0 -142,18 -101,-176l80 3 11 81 215 -1 10 -82 81 -1c9,51 13,112 -7,159 -63,39 -205,18 -289,18zm-788 -594c432,-136 607,515 184,647 -231,72 -570,-153 -380,-522 17,-33 46,-64 81,-86 62,-40 77,-27 115,-39zm808 150l155 5 1 92 53 27c-47,49 -73,102 -131,141 -51,-34 -99,-102 -133,-141l54 -27 2 -97zm-649 617l219 1c248,-16 575,-31 494,370 174,-25 223,-173 203,-371 180,-1 296,4 355,-126 89,-196 -111,-288 -132,-311 111,-147 199,-305 138,-563 -43,-180 -169,-324 -332,-396 -195,-87 -404,-65 -574,43 -242,153 -235,361 -281,443 -187,7 -309,-12 -440,82 -238,171 -262,506 -47,705 120,112 199,116 397,123z"/>
  <path class="fil6" d="M3683 654c36,76 61,54 121,161 39,70 67,126 77,215 24,217 -66,315 -142,439l47 37c50,35 57,45 76,87 6,13 7,19 13,31 9,19 7,18 17,33l83 3c11,13 41,-44 2,41 -45,148 75,280 190,301 -25,-120 -19,-202 53,-274 178,-177 696,53 947,-163 248,-213 169,-597 -106,-705 -97,-38 -218,-27 -334,-34 -10,-81 -33,-158 -70,-218 -48,-79 -104,-107 -144,-165 -237,-157 -461,-159 -671,0 -60,64 -119,112 -160,211z"/>
  <path class="fil7" d="M9428 8281l260 -6c23,61 24,137 -1,191l-256 9c-21,-65 -27,-128 -3,-195zm-4527 258l4891 0 -11 -379 -508 0 2 35 -3 178 -1295 -1 -2 -191 1 -29c-165,27 -539,6 -726,6 -109,0 -645,22 -694,-13 -34,41 -35,93 -73,128 -21,-46 -30,-110 -61,-142l-2 26 -1508 1 -11 379z"/>
  <path class="fil8" d="M8510 5963c36,-36 120,-124 156,-141l0 182 -36 10c-72,22 -5,84 -89,58 20,-47 21,-7 21,-82 -49,-31 57,31 -25,-12 -13,-7 -12,8 -18,-10 -1,-4 -6,-3 -9,-5zm546 839c-9,-13 -251,-221 -306,-214 -15,2 -49,17 -67,26l-71 42 23 -281c103,-87 204,28 381,165 79,61 301,239 371,273 -29,-49 47,-25 190,-24l-1 -1172c-71,-18 -1178,-16 -1298,-5l-4 1174c116,13 276,-4 387,1 44,2 55,3 96,1 37,-1 72,-1 110,0 72,2 125,-14 189,13z"/>
  <path class="fil9" d="M3851 7024l-8 98 -123 -1c-15,-52 -15,-55 2,-100l129 3zm-369 -5l136 4 -7 99 -129 -1 0 -102zm-465 0l136 3 -7 99 -129 0 0 -102zm-104 103l-123 -3c-24,-69 -5,-55 -3,-82 0,-6 3,-7 5,-16l128 3 -7 99zm-360 -102l135 2 -8 101 -129 -2 1 -101zm832 93c-53,10 -81,16 -130,-5 -15,-46 -16,-40 4,-88l126 3 0 90zm-96 -466c26,-49 287,-205 303,-247l2 96 218 0 0 279 -206 4c-2,3 -4,9 -5,12l-22 68c-83,-62 -200,-169 -289,-212zm197 -560l136 1 -8 103 -131 -2 3 -102zm-231 1l135 0 -8 103 -128 -5 1 -98zm-464 98c-33,-121 26,-106 132,-97l-6 103 -125 -6zm928 -100l136 8c11,119 -12,107 -138,93l2 -102zm-698 1l137 7c9,125 -11,102 -139,95l2 -102zm-465 0l137 6c12,119 -13,109 -138,95l1 -101zm-74 877c7,210 -160,86 2,224l1395 -5 26 2 -1 -1160 -1414 3c-9,117 9,487 -13,538 -5,13 -30,-15 -24,81l25 73c16,32 -24,39 -21,120 4,102 29,27 24,125z"/>
  <path class="fil9" d="M12914 5904c-12,-75 -13,-621 2,-688l182 2 -8 692 -176 -6zm-247 -526l186 2 -4 526 -186 0 4 -528zm-242 142l175 0c16,62 14,320 4,388l-185 -5 6 -383zm-239 176c40,-20 75,-21 177,-10l-1 217 -184 -1c-2,-66 -10,-155 7,-206zm-273 -1057c32,64 106,137 115,233 9,94 -75,52 -77,283 -5,844 -77,916 533,916 177,0 577,30 699,-38 185,-104 140,-331 140,-590 0,-269 48,-483 -153,-589 -115,-61 -550,-32 -713,-32 -57,0 -124,4 -179,1 -82,-4 -70,-26 -117,-70 -47,-43 -148,-115 -246,-115z"/>
  <path class="fil1" d="M3977 1702c40,-86 9,-28 -2,-41l-83 -3c-10,-14 -9,-14 -17,-33 -6,-12 -7,-18 -13,-31 -19,-42 -26,-52 -76,-87l-47 -37c76,-123 166,-222 142,-439 -10,-89 -39,-146 -77,-215 -60,-107 -84,-85 -121,-161 -57,-11 -135,-82 -258,-102 -122,-19 -224,0 -322,46 -171,79 -268,211 -316,439 -149,21 -372,-47 -523,202 -119,195 -51,414 81,531 333,295 1070,-183 1014,436 218,-36 182,-252 182,-333 385,-9 264,-63 352,-206 86,-6 73,-19 84,36z"/>
  <path class="fil10" d="M10291 2949c-34,-169 193,-193 215,-54 25,161 -188,186 -215,54zm-80 -741c334,-132 575,59 368,327 -153,198 -53,115 -107,209l-152 1c-16,-248 169,-236 133,-400 -76,-58 -118,-24 -200,-8 -24,-37 -36,-78 -42,-130zm580 945c13,-248 66,-202 279,-226 20,-122 7,-338 7,-471 0,-414 -15,-482 -455,-482 -831,1 -825,-58 -825,591 0,123 -22,347 30,440 43,77 64,64 21,170 -27,66 -66,107 -85,154 82,-9 148,-45 206,-89 102,-78 35,-88 216,-86 202,2 406,5 607,0z"/>
  <path class="fil11" d="M6917 6463c97,54 185,183 245,294l876 -1 2 -1115c-57,34 -963,-2 -1127,12 -18,119 -14,709 3,810z"/>
  <path class="fil8" d="M6663 6341l160 58c-24,-75 -21,-740 -7,-842l1319 -1 2 1291 -936 1c0,117 23,194 4,331 35,-48 4,-100 3,-174 329,0 752,-23 1069,2 125,10 117,-2 260,-2l384 8c6,0 8,-1 14,-1 100,-7 324,-17 409,0 -49,-38 -194,-152 -239,-168l-316 -1c-15,-33 -9,-15 -32,-48 -37,60 22,15 -32,43l-201 8c-2,-2 -3,-7 -4,-6 -15,26 -9,-13 -12,-16l-24 -24c-5,-5 -10,-10 -15,-14 -7,20 -1,13 -12,35 -10,21 -5,13 -16,26l-222 -5c-16,-163 -25,-1189 10,-1283 70,-24 1283,-22 1400,1l4 1276c-73,11 -144,9 -213,-3 22,46 201,172 247,200 23,-22 -28,-8 48,-18 16,-2 48,0 67,-1l-1 -1155c-53,-66 -98,-98 -112,-201l-4 -257 -2982 -4 2 869c0,50 13,66 -22,74z"/>
  <path class="fil12" d="M6684 5397l2982 4 4 257c-4,-109 -8,-259 1,-367 11,-132 126,-160 44,-280 -13,30 -310,15 -355,15 -855,0 -1856,-19 -2675,1l0 370z"/>
  <path class="fil13" d="M2930 3017c372,9 423,-46 395,382 -14,215 14,574 -22,769 39,-41 25,-45 25,-164l0 -565 318 -3c32,105 29,131 92,216 29,39 102,119 166,130 -4,-129 -45,-233 34,-347 244,0 269,18 243,-436 -106,19 -294,102 -297,-50 -2,-75 45,-86 111,-104 68,-18 125,-31 190,-47 -7,-216 60,-358 -181,-357 -183,1 -366,0 -549,0 -655,0 -511,-63 -524,576z"/>
  <path class="fil3" d="M6439 6549l113 -1c165,24 268,94 346,192 59,75 153,291 91,416l-7 42c-84,187 -191,316 -432,347l-111 -3c-201,-29 -361,-166 -406,-335l-17 -55c-25,-68 -12,-178 6,-235 26,-84 41,-123 86,-176 82,-98 179,-171 331,-191zm-652 480c-2,262 109,423 234,547 76,74 214,123 244,154 23,23 98,234 109,279 26,42 42,78 47,125 31,32 40,96 61,142 38,-35 39,-88 73,-128l115 -305c65,-131 12,-89 143,-149 66,-30 132,-81 179,-124 89,-82 196,-238 213,-391 19,-136 -4,-213 -4,-331 -19,-17 -1,7 -18,-23 -13,-24 -1,0 -9,-20 -5,-13 -9,-33 -13,-47 -60,-111 -148,-240 -245,-294l-63 -53 -31 -12 -160 -58 -73 -6c-241,-8 -418,40 -561,176 -153,147 -217,259 -243,518z"/>
  <path class="fil14" d="M9825 5255l1020 1 -3 220 -1016 -5 -1 -216zm-127 -309l17 65c82,120 -33,148 -44,280 -9,107 -5,257 -1,367 14,103 59,135 112,201 133,44 128,44 290,44 102,0 207,4 307,0l289 3c150,-30 202,8 292,-125 91,-134 14,-252 62,-369l-4 -26c-36,-107 13,-149 -82,-261 -60,-71 -147,-84 -272,-90l-275 6c-54,21 -384,20 -414,14l-54 -25c-13,-43 -90,-96 -131,-123 -47,-21 -100,-50 -165,-51l73 89z"/>
  <path class="fil15" d="M7975 7509l-1 503 1 141 -1 29c204,-13 438,-3 645,-3 122,0 577,-24 655,17l-2 -35 2 -156c-2,-129 23,-618 -7,-690l-6 196 -1286 -2z"/>
  <path class="fil16" d="M4782 5536c-23,-34 -34,-128 54,-97 50,18 56,109 -54,97zm4 -293l70 1c13,43 13,54 0,94l-70 7c-37,-51 -39,-55 0,-102zm-4 -195c115,-11 101,86 49,101 -33,10 -58,-13 -66,-31 -16,-34 5,-53 17,-70zm-5 -196c126,-11 101,82 56,98 -79,29 -80,-48 -56,-98zm5 -97c-37,-54 -18,-122 49,-102 52,16 67,112 -49,102zm74 -290c22,73 16,94 -64,99 -64,-67 -25,-119 64,-99zm-94 -131c-23,-81 81,-97 101,-38 24,72 -83,101 -101,38zm30 -559c-17,-8 -41,-32 -31,-65 15,-53 115,-69 101,49 -18,11 -37,32 -70,16zm-10 -289c114,-23 99,77 52,95 -72,27 -91,-39 -52,-95zm2 -102c-87,-115 118,-163 72,-2l-72 2zm-2 -294c111,-12 102,85 49,101 -65,20 -87,-46 -49,-101zm82 -126c-40,49 -112,48 -105,-26 5,-58 108,-85 105,26zm-847 -65c63,-69 114,26 81,66 -44,52 -134,-7 -81,-66zm257 35c-109,11 -126,-97 -10,-103 48,48 42,55 10,103zm206 -65c-123,98 -141,-139 2,-66l-2 66zm97 -39c-15,-128 111,-124 96,0 -49,25 -47,25 -96,0zm207 -33c-27,-40 -30,-77 28,-105l52 26c6,77 -5,89 -80,80zm194 -44c-38,-47 -39,-51 0,-103l75 8 -6 92 -69 2zm229 -42c-99,-11 -92,-130 33,-96 15,64 15,65 -33,96zm206 -145c115,130 -165,128 -55,-4l55 4zm120 -44c91,-64 158,134 0,89 -11,-36 -11,-52 0,-89zm195 -38c57,-55 119,28 74,74 -54,55 -123,-27 -74,-74zm192 -40c63,-66 121,29 74,74 -43,41 -130,-16 -74,-74zm268 -50c32,96 -54,115 -85,69 -41,-60 14,-111 85,-69zm107 30c-27,-81 28,-105 85,-73 23,81 -15,115 -85,73zm197 -121c55,-51 119,29 75,75 -50,53 -135,-18 -75,-75zm170 -27c43,-55 116,-39 107,29 -6,48 -97,89 -107,-29zm-2480 524c-65,16 -122,29 -190,47 -66,18 -113,28 -111,104 3,152 192,68 297,50l494 -121c28,-22 -42,-24 68,-24l-1 1015c-9,83 -46,187 -13,331l-4 1399c49,99 111,70 176,17l6 -23 1 -580 0 -58 2 -752 0 -303 1 -1077 45 -11c244,-67 518,-125 769,-183 168,-39 646,-177 789,-178 33,59 66,80 90,116l32 58c3,-72 19,-87 47,-148 40,-88 16,-77 104,-101 154,-43 99,-200 -24,-189 -76,7 -246,58 -332,79 -109,26 -225,53 -332,78 -218,50 -439,105 -655,156l-498 120c-90,11 -62,-45 -175,-25 -90,47 87,43 -265,129 -107,26 -212,50 -319,74z"/>
  <path class="fil9" d="M6469 1470c-97,-3 -556,13 -602,-15l-1 -41c42,-16 627,-17 667,0l2 41 -65 15zm-603 -179c49,-25 578,-20 666,-9l2 50c-56,23 -277,9 -353,9 -184,0 -323,33 -315,-50zm852 658c-12,-52 -75,-133 -64,-187 13,-69 59,-48 60,-196 4,-591 55,-658 -396,-658 -131,0 -413,-30 -503,31 -132,89 -101,239 -101,422 0,174 -36,344 107,428 143,84 617,-34 718,63 49,47 102,88 179,99z"/>
  <path class="fil16" d="M10030 9416c97,-52 128,102 5,77 -19,-33 -27,-36 -5,-77zm-4 -105c-8,-34 -6,-56 8,-84 120,-23 116,112 -8,84zm-6 -197c-3,-86 38,-89 92,-57 5,94 -37,96 -92,57zm7 -251c23,-13 49,-8 73,4 59,104 -110,133 -73,-4zm-6 -477c-6,-111 102,-106 91,2 -48,27 -46,27 -91,-2zm5 -251c89,-47 143,108 9,84 -15,-28 -16,-50 -9,-84zm734 -171c55,-53 106,28 67,67 -21,22 -52,20 -72,1 -35,-33 -12,-52 5,-68zm-728 67c-55,-99 108,-132 77,-5 -25,15 -40,23 -77,5zm0 -260c115,-19 97,69 61,88 -60,32 -86,-29 -61,-88zm349 -57l-68 -5c-9,-44 -15,-34 6,-75 41,-23 16,-18 64,-8l-2 88zm-349 -41c-27,-61 2,-116 60,-86 42,22 47,107 -60,86zm148 -162c49,-3 86,-2 80,52 -5,43 -31,45 -78,41 -30,-47 -29,-44 -2,-93zm-149 -28c-41,-74 32,-106 69,-69 50,50 -15,96 -69,69zm-80 -191c27,48 17,117 -51,90 -36,-14 -61,-100 51,-90zm75 18c-9,-34 -7,-56 7,-84 123,-23 111,111 -7,84zm-292 -51c-13,-67 8,-86 75,-74 14,28 17,51 11,87 -36,6 -59,2 -86,-13zm-63 -107c-67,32 -113,3 -76,-76 74,-22 92,3 76,76zm-229 -108c-11,-70 2,-97 75,-76 27,42 20,37 12,83 -35,9 -58,7 -87,-7zm-134 -187c65,-16 90,8 73,73 -27,15 -47,16 -82,9 -7,-34 -5,-55 9,-82zm-154 -32c-22,-114 67,-99 87,-60 33,64 -33,79 -87,60zm-144 -103c-32,-145 130,-110 75,-6 -40,21 -32,14 -75,6zm-70 -201c24,58 22,52 -8,96l-52 -2c-36,-49 -26,-97 59,-94zm-211 -25c-39,-68 -2,-95 67,-79 13,28 14,51 6,87l-73 -8zm326 304c40,14 28,-3 49,41 45,16 190,130 239,168 82,52 150,118 229,177 56,42 190,127 222,180 42,8 61,34 98,62 38,30 62,31 84,81l5 1027 1 300 -5 964c-3,76 -15,168 81,173 102,5 96,-94 94,-179l-6 -956c17,-78 17,-227 2,-305l8 -899c43,19 204,145 225,177 57,11 36,9 79,50l211 161c73,36 116,126 214,98 38,-25 62,-50 44,-110 -13,-43 -44,-53 -83,-82 -54,-39 -124,-101 -181,-134 -3,-3 -8,-6 -10,-9 -3,-2 -7,-6 -10,-8l-126 -97c-53,-42 -97,-67 -130,-110 -39,-11 -215,-140 -234,-183 0,-79 21,-219 -37,-254 -111,-67 -138,44 -142,129 -36,-15 -279,-200 -309,-231 -46,-28 -225,-154 -247,-200 -37,-6 -20,27 -33,-19 -70,-34 -292,-212 -371,-273 -178,-137 -278,-253 -381,-165l-23 281 71 -42c17,-9 52,-25 67,-26 55,-7 297,202 306,214z"/>
  <path class="fil17" d="M3907 8539l-2 -1354 -26 -2 0 422c-343,-15 -2109,24 -2264,-14 -109,-27 -218,-112 -272,-187 -83,-115 -70,-245 -70,-386 0,-144 -10,-327 2,-466l-219 -1c48,258 -79,762 143,1008 23,26 38,41 60,63 65,65 81,73 155,106 179,81 223,80 436,80 133,0 1950,11 2028,-3l1 679c11,45 1,27 27,54z"/>
  <path class="fil18" d="M10389 712c241,-60 423,107 467,286 125,508 -638,682 -759,187 -60,-244 104,-426 292,-473zm408 835c177,81 447,546 616,334 111,-139 -89,-262 -150,-317l-272 -259c190,-703 -564,-1009 -947,-561 -263,307 -84,834 352,896 178,26 275,-25 401,-93z"/>
  <path class="fil12" d="M4907 5593c15,-19 11,-7 20,-40 7,-22 6,-33 7,-56 1,-31 -1,-76 -1,-106l1642 2 13 -369c-214,35 -610,10 -846,10 -44,0 -793,18 -809,-15l-26 -6 -1 580z"/>
  <path class="fil19" d="M4908 5014l26 6 1650 5 6 1311 73 6c35,-9 22,-24 22,-74l-2 -869 0 -370c819,-21 1820,-1 2675,-1 45,0 342,15 355,-15l-17 -65c-793,-21 -1611,-2 -2407,-2 -397,0 -795,0 -1192,0 -190,0 -1079,-22 -1191,12l0 58z"/>
  <path class="fil20" d="M8768 3893l5 9 617 6c-36,-42 5,-12 -54,-25l-192 -1c-20,-544 -1,-1124 -1,-1672 0,-230 -36,-603 52,-784 134,-274 362,-265 575,-275l1 -75c-794,-13 -707,574 -707,1053l-2 1754c-67,-2 -47,32 -47,-164l0 -1603c0,-407 -73,-813 349,-1026 141,-72 235,-58 403,-65l7 -74c-332,-20 -535,87 -684,263 -173,204 -155,471 -154,793 1,308 16,1693 -2,1877 -57,0 -122,-8 -165,12z"/>
  <path class="fil0" d="M10389 7572c33,43 77,68 130,110l126 97c3,3 7,6 10,8 3,2 7,6 10,9l-1 -1123 -1 -181 5 -584 -289 -3 10 1668z"/>
  <path class="fil5" d="M11396 3447c-142,32 -147,-151 1,-121 17,24 28,29 28,61 0,45 -17,39 -29,60zm-276 -123c88,-12 106,18 94,106 -61,34 -68,32 -125,-12 -2,-53 11,-67 31,-94zm-133 125c-151,23 -113,-155 -13,-127 98,28 13,126 13,127zm-195 -297c-50,279 33,392 31,423 -2,27 -43,94 -52,117 117,-20 91,-49 155,-84 132,-71 562,105 590,-153 10,-92 17,-396 -21,-460 -65,-109 -287,-84 -422,-69 -20,143 -126,214 -279,226z"/>
  <path class="fil10" d="M897 5785c-38,12 -53,-1 -115,39 -34,22 -64,53 -81,86 -190,368 149,593 380,522 423,-132 248,-783 -184,-647z"/>
  <path class="fil21" d="M13466 4127c-23,-29 -57,-59 -39,-112 14,-40 53,-69 110,-55 78,20 104,181 -70,166zm-10 -399c-80,-9 -14,-22 -83,-36 -21,26 -8,39 -26,75l-60 -1c-3,0 -7,0 -9,0 -2,0 -7,0 -8,0l-11 20c-3,68 18,20 -5,57 -31,52 -27,-7 -81,37 16,61 24,0 25,82l-61 41c31,70 -43,-66 29,34 11,16 16,-10 17,36 3,80 -33,-13 -33,75 35,28 28,4 74,30 -3,48 -16,59 -17,67 -6,74 40,-14 82,39 29,36 -2,25 16,73 95,2 3,-22 90,-17 23,30 13,40 33,67 89,-3 -1,-31 72,-40 73,-9 0,35 79,42 38,-45 -8,-22 41,-67 81,6 16,13 76,24 41,-47 -1,-21 20,-86 45,-16 61,9 82,-14 31,-34 -8,-11 -10,-83 45,-32 33,-4 75,-29 -6,-88 -28,11 -35,-71 -5,-66 19,-12 49,-66 -21,-56 -13,-7 -63,-55 3,-77 11,-5 27,-82 -3,-2 -9,-7 -11,-4l-74 -21c-2,-59 22,-61 -1,-85 -27,-27 -18,7 -76,8 -30,-34 -7,-10 -18,-37 -22,-54 21,1 -17,-46 -74,6 -1,25 -68,31 -53,5 -13,5 -33,-12l-33 -45c-36,20 -22,33 -55,59z"/>
  <path class="fil22" d="M11775 6544l70 -11c30,70 10,118 -74,89 -10,-30 -10,-49 4,-78zm-104 73c-61,31 -111,-5 -84,-56 22,-42 113,-55 84,56zm-178 0c-63,32 -112,-8 -85,-58 21,-40 111,-53 85,58zm-254 -76c75,-17 91,2 76,76 -29,13 -49,15 -81,5 -11,-32 -10,-53 5,-81zm-180 0c74,-15 95,0 76,76 -27,14 -47,15 -80,7 -10,-31 -9,-53 4,-82zm-177 0c121,-25 118,115 -5,82 -10,-32 -9,-54 5,-82zm-178 -1c120,-20 115,114 -5,85 -11,-34 -9,-55 5,-85zm933 -375c8,40 29,85 44,110l-147 72c-21,-29 -43,-72 -54,-109l156 -73zm-82 -140l53 106 -152 75c-12,-39 -27,-68 -51,-108l151 -72zm-223 -77c52,-9 89,-44 156,-68l38 97c-25,39 -83,54 -139,82l-55 -112zm82 -207l53 101 -150 76 -53 -105 150 -71zm-68 -141c11,41 29,70 49,105 -42,19 -114,46 -148,70l-54 -106 153 -69zm-226 -74c54,-35 87,-43 148,-74l55 107 -157 74c-11,-31 -34,-82 -46,-107zm-103 -137l4 26c89,195 177,347 272,545 50,104 218,479 268,538l-900 -6 1 181c259,-25 631,-4 902,-4 107,0 376,46 387,-76 13,-140 -245,-95 -360,-96l-18 -62c-6,-17 -15,-31 -23,-46l150 -77c37,107 34,74 75,85 -19,-70 -500,-1051 -553,-1101 -33,42 27,110 27,110 -31,29 -108,63 -151,79 -2,-3 -17,-40 -20,-45 -2,-4 -14,-23 -17,-26 -28,-27 7,-10 -45,-26z"/>
  <path class="fil0" d="M10149 8537c16,78 15,226 -2,305 245,-20 389,16 485,-193 70,-152 -3,-536 40,-624l-211 -161c-43,-41 -21,-39 -79,-50l0 724 -232 -2z"/>
  <path class="fil4" d="M9105 6843c-21,-44 -10,-26 -49,-41 -64,-28 -117,-12 -189,-13 -38,-1 -73,-1 -110,0 -41,1 -52,1 -96,-1 -111,-5 -271,12 -387,-1l4 -1174c120,-12 1227,-14 1298,5l1 1172c-143,-1 -219,-24 -190,24 13,46 -4,13 33,19 69,12 140,14 213,3l-4 -1276c-117,-23 -1330,-25 -1400,-1 -35,94 -26,1120 -10,1283l222 5c11,-13 6,-5 16,-26 10,-22 4,-16 12,-35 5,4 10,9 15,14l24 24c3,3 -3,42 12,16 1,-1 2,4 4,6l201 -8c54,-27 -5,17 32,-43 23,32 17,15 32,48l316 1z"/>
  <polygon class="fil23" points="9826,5471 10842,5476 10845,5256 9825,5255 "/>
  <path class="fil11" d="M6823 6399l31 12 7 -808 1226 2 2 1195 -895 2 7 46 936 -1 -2 -1291 -1319 1c-14,102 -18,767 7,842z"/>
  <path class="fil8" d="M6989 7156c62,-125 -32,-341 -91,-416 -78,-99 -181,-169 -346,-192l0 562 423 0 13 45z"/>
  <path class="fil2" d="M6015 7151c3,-61 1,-19 15,-34l406 0 2 -567c-152,20 -249,93 -331,191 -45,54 -60,93 -86,176 -18,57 -31,167 -6,235z"/>
  <path class="fil8" d="M6854 6411l63 53c-18,-101 -21,-691 -3,-810 163,-14 1070,21 1127,-12l-2 1115 -876 1c4,14 8,35 13,47 8,19 -4,-5 9,20 17,31 -2,7 18,23l-7 -46 895 -2 -2 -1195 -1226 -2 -7 808z"/>
  <path class="fil16" d="M9088 7375l121 4 -6 87 -117 -1 3 -90zm-425 0l121 3 -7 88 -116 -2 2 -90zm-423 1l120 2 -6 89 -117 -2 2 -88zm-210 -2l120 8 -5 83 -117 1 2 -92zm845 3l120 6c7,47 10,41 -6,75 -79,36 -127,24 -114,-80zm-365 92c-73,-1 -67,-14 -59,-92l121 5c10,75 17,88 -61,87zm-535 40l1286 2 6 -196c-46,1 -112,-10 -139,-10 -28,1 -98,11 -152,11l-853 -10c-24,-1 -9,3 -53,9 -29,3 -64,2 -95,3l0 192z"/>
  <path class="fil16" d="M9092 8226l122 -1 -9 91 -114 -5 1 -85zm-211 -2l123 4 -8 87 -115 -1 0 -90zm-424 1l123 3 -9 87 -115 -2 1 -89zm-424 0l123 3 -9 87 -115 -2 1 -88zm756 0l-4 82c-40,14 -78,13 -110,0 -18,-35 -14,-28 -7,-81l121 -1zm-484 93c-77,1 -71,-14 -61,-93l120 8c8,70 13,84 -59,85zm970 -121c-78,-40 -533,-17 -655,-17 -207,0 -441,-11 -645,3l2 191 1295 1 3 -178z"/>
  <path class="fil19" d="M6015 7151l17 55 404 3 2 332 111 3 3 -341 429 -6 7 -42 -13 -45 -423 0 0 -562 -113 1 -2 567 -406 0c-14,16 -12,-27 -15,34z"/>
  <path class="fil20" d="M12076 4184c127,-86 205,109 106,164 -111,62 -223,-85 -106,-164zm14 -153c-48,-11 -19,-2 -58,-26 -2,3 -4,4 -5,9l-28 52c-33,0 -30,-4 -65,-10 13,106 2,50 -59,85 27,50 11,-2 21,55l-46 41c32,38 25,3 30,42 4,27 24,-7 -19,54 54,37 59,18 40,102 83,-6 74,-16 73,64 75,-18 64,-35 99,29 92,-40 13,-45 110,1 37,-69 29,-46 99,-31 -3,-74 -1,-70 72,-63 -8,-38 -24,-51 11,-85 2,-2 7,-4 9,-6l22 -11c-14,-19 -13,18 -30,-55l43 -37c-40,-42 -65,-18 -31,-100 -9,-5 -36,-5 -54,-26 -17,-20 -5,-39 -19,-59l-51 8 -28 -60c-36,21 -14,16 -55,24 -16,-13 -3,-2 -19,-19l-22 -24 -38 45z"/>
  <path class="fil13" d="M886 4675c-68,-408 538,-481 592,-107 27,184 -101,326 -247,347 -176,26 -322,-103 -345,-240zm593 -463c-53,12 -96,55 -125,59 -22,3 -101,-31 -162,-32 -398,-5 -495,487 -237,672 201,144 430,70 542,-96 77,-114 81,-269 5,-396 -114,-189 -49,-35 -24,-207z"/>
  <path class="fil20" d="M11427 876l-264 -1 -3 297 267 -2c9,14 8,12 17,38 7,20 4,25 11,44l303 -235c-27,-34 -237,-195 -303,-231l-27 90z"/>
  <path class="fil24" d="M12853 4378c14,-128 -49,-40 -65,-130 -11,-61 39,-77 79,-104 48,19 68,33 89,66 -38,28 -43,-5 -71,41l78 54 -2 85 -71 48c-5,4 -14,16 -16,13 -1,-2 -5,4 -8,6 -38,-45 -81,-55 -87,-102 64,-13 24,-11 73,22zm-141 81c-18,50 -19,14 -40,67 117,14 287,19 370,-73 85,-94 76,-238 -13,-323 -222,-213 -534,146 -317,329z"/>
  <path class="fil13" d="M3288 6649c89,43 206,150 289,212l22 -68c1,-3 3,-8 5,-12l206 -4 0 -279 -218 0 -2 -96c-16,42 -277,198 -303,247z"/>
  <path class="fil19" d="M12914 5904l176 6 8 -692 -182 -2c-15,67 -14,613 -2,688z"/>
  <polygon class="fil5" points="6846,4712 6756,4708 6496,4710 6409,4712 6294,4707 6289,4893 6971,4894 6972,4710 "/>
  <path class="fil20" d="M11512 4315c211,-69 303,257 103,319 -221,68 -320,-247 -103,-319zm-183 15c-64,128 -20,72 1,157 23,92 -47,111 41,178l122 28c62,39 -1,7 35,34 23,18 9,23 65,18 111,-9 8,-85 195,-121 9,-21 23,-50 27,-69 12,-58 -2,-28 -19,-67 -33,-72 17,-117 -21,-173 -47,-70 -67,-17 -137,-52 -93,-46 3,-72 -165,-49 -57,109 -22,79 -144,116z"/>
  <path class="fil3" d="M942 3511c26,40 217,194 265,225 3,-3 5,-14 6,-12l22 -70 102 -2 1 -283 -108 -2 -7 -87c-44,21 -256,191 -281,232z"/>
  <path class="fil4" d="M6550 7544c241,-31 348,-160 432,-347l-429 6 -3 341z"/>
  <polygon class="fil19" points="12663,5905 12849,5906 12853,5379 12667,5377 "/>
  <path class="fil12" d="M6438 7541l-2 -332 -404 -3c45,169 205,305 406,335z"/>
  <path class="fil25" d="M11989 8402c39,31 60,35 113,45l-1 -815 -114 0 2 770z"/>
  <polygon class="fil14" points="12314,8445 12429,8408 12430,7854 12430,7813 12429,7729 12314,7727 "/>
  <path class="fil12" d="M10815 7073c35,41 187,162 230,191l21 -70 86 -6 5 -240 -92 -3c-1,-6 -6,-35 -6,-36 -11,-34 -6,-18 -13,-30 -39,21 -211,155 -230,194z"/>
  <path class="fil19" d="M12419 5902l185 5c11,-68 12,-326 -4,-388l-175 0 -6 383z"/>
  <polygon class="fil14" points="12151,8461 12264,8457 12261,7871 12149,7870 "/>
  <path class="fil7" d="M9495 7661c57,-21 39,-71 90,-44 47,25 18,65 4,109 -62,8 -121,-6 -161,20 -17,34 -18,129 4,161 28,28 212,17 228,3 20,-29 21,-64 17,-110 -5,-73 -13,-48 -53,-81 54,-174 -118,-185 -129,-57z"/>
  <path class="fil4" d="M9428 8281c-24,66 -19,130 3,195l256 -9c26,-54 24,-130 1,-191l-260 6z"/>
  <path class="fil1" d="M1974 6361c20,-47 16,-107 7,-159l-81 1 -10 82 -215 1 -11 -81 -80 -3c-40,195 32,177 101,176 83,0 226,22 289,-18z"/>
  <path class="fil1" d="M6496 4710l259 -2c3,-120 -8,-218 -136,-214 -118,4 -125,100 -123,215z"/>
  <path class="fil14" d="M12473 8373c81,-21 115,-74 115,-176l0 -41 -3 -214 -113 1 1 429z"/>
  <path class="fil17" d="M6532 1282c-88,-11 -617,-16 -666,9 -8,83 131,50 315,50 76,0 297,14 353,-9l-2 -50z"/>
  <path class="fil26" d="M10194 1172c122,11 28,-112 115,-219 31,-38 55,-42 104,-62 51,-21 88,-65 24,-91 -124,-50 -352,228 -243,371z"/>
  <path class="fil19" d="M6534 1455l-2 -41c-40,-17 -625,-16 -667,0l1 41c46,28 505,12 602,15l65 -15z"/>
  <path class="fil1" d="M10791 3153c154,-13 260,-83 279,-226 -214,25 -267,-21 -279,226z"/>
  <path class="fil19" d="M12186 5695c-17,50 -9,140 -7,206l184 1 1 -217c-103,-12 -137,-10 -177,10z"/>
  <path class="fil1" d="M1704 6032l-54 27c34,39 82,107 133,141 59,-38 85,-91 131,-141l-53 -27 -1 -92 -155 -5 -2 97z"/>
  <path class="fil14" d="M11832 8011c-7,48 -9,192 -5,241 5,60 62,115 117,121l-4 -361 -108 0z"/>
  <path class="fil17" d="M12853 4378c-48,-33 -9,-35 -73,-22 6,47 49,57 87,102 3,-2 7,-9 8,-6 2,3 11,-9 16,-13l71 -48 2 -85 -78 -54c28,-46 33,-13 71,-41 -21,-32 -41,-47 -89,-66 -40,27 -91,42 -79,104 17,90 79,2 65,130z"/>
  <polygon class="fil3" points="1400,3649 1497,3653 1497,3371 1400,3370 "/>
  <polygon class="fil3" points="1557,3653 1652,3653 1653,3369 1559,3369 "/>
  <path class="fil27" d="M11176 4202c80,12 59,-46 138,-40 77,6 111,10 122,-72l-87 37 -34 -66 71 -53c-88,-36 -96,9 -118,72 -29,83 -98,35 -92,122z"/>
  <path class="fil16" d="M8510 5963c3,2 8,1 9,5 6,18 5,3 18,10 82,43 -25,-19 25,12 0,75 -1,35 -21,82 84,26 17,-37 89,-58l36 -10 0 -182c-36,17 -120,105 -156,141z"/>
  <polygon class="fil28" points="11198,7190 11284,7192 11286,6948 11207,6945 "/>
  <path class="fil12" d="M11333 7187l72 4 1 -243 -82 3c-2,73 -13,179 9,237z"/>
  <polygon class="fil13" points="1141,4790 1224,4792 1227,4561 1143,4557 "/>
  <path class="fil5" d="M12629 6645c13,-70 -11,-130 -63,-176 -102,103 -88,268 63,176z"/>
  <path class="fil29" d="M4671 2150c9,-30 23,-68 -1,-101 -30,-42 -14,2 -36,-36 -14,-25 -4,-28 -15,-55 -27,36 2,24 -25,61 -17,23 -33,0 -43,56 -15,82 63,84 120,76z"/>
  <path class="fil19" d="M2554 6189c125,14 151,25 138,-95l-137 -6 -1 101z"/>
  <path class="fil19" d="M3019 6190c128,7 148,30 139,-95l-137 -7 -2 102z"/>
  <path class="fil19" d="M3717 6189c126,13 149,26 138,-93l-136 -8 -2 102z"/>
  <path class="fil19" d="M2790 6188l125 6 6 -103c-106,-8 -164,-24 -132,97z"/>
  <polygon class="fil19" points="3483,6191 3613,6193 3621,6090 3485,6089 "/>
  <polygon class="fil19" points="3017,7122 3146,7123 3153,7024 3017,7020 "/>
  <polygon class="fil19" points="2551,7121 2680,7123 2688,7023 2552,7021 "/>
  <polygon class="fil19" points="3482,7122 3611,7123 3618,7024 3482,7020 "/>
  <path class="fil19" d="M3722 7021c-17,46 -17,48 -2,100l123 1 8 -98 -129 -3z"/>
  <polygon class="fil19" points="3252,6188 3381,6193 3389,6090 3254,6090 "/>
  <path class="fil19" d="M2791 7022c-2,9 -4,11 -5,16 -2,27 -21,12 3,82l123 3 7 -99 -128 -3z"/>
  <path class="fil19" d="M3257 7021c-19,47 -18,42 -4,88 49,21 78,15 130,5l0 -90 -126 -3z"/>
  <path class="fil4" d="M8571 7382l-121 -5c-8,77 -14,91 59,92 78,1 71,-12 61,-87z"/>
  <path class="fil7" d="M8363 8233l-120 -8c-10,79 -15,94 61,93 72,-1 67,-15 59,-85z"/>
  <path class="fil4" d="M8989 7457c16,-34 13,-28 6,-75l-120 -6c-13,104 36,116 114,80z"/>
  <path class="fil7" d="M8675 8307c32,13 70,14 110,0l4 -82 -121 1c-6,53 -11,46 7,81z"/>
  <polygon class="fil4" points="8662,7464 8778,7466 8785,7378 8663,7375 "/>
  <polygon class="fil4" points="9085,7465 9203,7466 9209,7379 9088,7375 "/>
  <polygon class="fil7" points="8880,8314 8995,8314 9004,8227 8881,8224 "/>
  <polygon class="fil4" points="8238,7464 8354,7466 8360,7378 8240,7376 "/>
  <polygon class="fil7" points="8456,8313 8571,8314 8580,8227 8457,8224 "/>
  <polygon class="fil7" points="8032,8313 8147,8314 8155,8227 8033,8224 "/>
  <polygon class="fil7" points="9091,8311 9205,8316 9214,8225 9092,8226 "/>
  <polygon class="fil4" points="8028,7466 8145,7465 8150,7382 8030,7374 "/>
  <path class="fil30" d="M4264 7658c-48,8 -47,42 -41,88"/>
  <path class="fil19" d="M4763 4333c18,64 125,35 101,-38 -20,-60 -124,-43 -101,38z"/>
  <path class="fil19" d="M6493 2302c-61,57 24,127 75,75 44,-46 -20,-126 -75,-75z"/>
  <path class="fil19" d="M5920 2443c-55,58 32,115 74,74 47,-45 -12,-140 -74,-74z"/>
  <path class="fil19" d="M5534 2522c-11,37 -12,53 0,89 159,45 92,-153 0,-89z"/>
  <path class="fil19" d="M4786 5243c-39,48 -37,51 0,102l70 -7c13,-41 13,-51 0,-94l-70 -1z"/>
  <path class="fil19" d="M6189 2393c-71,-41 -126,9 -85,69 31,46 117,27 85,-69z"/>
  <path class="fil19" d="M4783 4755c116,11 101,-86 49,-102 -67,-20 -86,47 -49,102z"/>
  <path class="fil19" d="M4863 3758c13,-118 -86,-102 -101,-49 -9,33 14,57 31,65 34,15 52,-5 70,-16z"/>
  <path class="fil13" d="M4018 2897c-54,59 37,118 81,66 33,-40 -18,-135 -81,-66z"/>
  <path class="fil19" d="M6664 2275c10,118 101,77 107,29 9,-68 -64,-84 -107,-29z"/>
  <path class="fil19" d="M4865 2963c3,-111 -99,-84 -105,-26 -7,73 65,75 105,26z"/>
  <path class="fil19" d="M5729 2483c-49,48 20,130 74,74 45,-46 -17,-129 -74,-74z"/>
  <path class="fil19" d="M4766 5118c8,17 33,41 66,31 52,-16 66,-113 -49,-101 -12,17 -32,36 -17,70z"/>
  <path class="fil19" d="M4778 4852c-23,50 -23,127 56,98 44,-16 69,-109 -56,-98z"/>
  <path class="fil19" d="M4783 3485c-39,55 -20,121 52,95 48,-18 62,-118 -52,-95z"/>
  <path class="fil19" d="M4784 3089c-39,55 -17,121 49,101 54,-16 63,-113 -49,-101z"/>
  <path class="fil19" d="M4857 4464c-89,-20 -128,31 -64,99 80,-5 86,-26 64,-99z"/>
  <path class="fil19" d="M4275 2932c32,-48 38,-55 -10,-103 -116,6 -99,114 10,103z"/>
  <path class="fil19" d="M4782 5536c110,12 104,-79 54,-97 -88,-31 -77,63 -54,97z"/>
  <path class="fil19" d="M4785 3383l72 -2c45,-161 -159,-113 -72,2z"/>
  <path class="fil19" d="M4577 2828c49,25 47,25 96,0 16,-123 -111,-128 -96,0z"/>
  <path class="fil19" d="M5208 2710c48,-31 48,-32 33,-96 -125,-34 -132,85 -33,96z"/>
  <path class="fil19" d="M4978 2752l69 -2 6 -92 -75 -8c-38,51 -37,56 0,103z"/>
  <path class="fil19" d="M5413 2565l-55 -4c-110,132 170,134 55,4z"/>
  <path class="fil19" d="M4480 2867l2 -66c-143,-73 -125,164 -2,66z"/>
  <path class="fil19" d="M6296 2423c70,42 108,8 85,-73 -57,-32 -112,-8 -85,73z"/>
  <path class="fil19" d="M4784 2795c74,9 86,-3 80,-80l-52 -26c-58,28 -55,65 -28,105z"/>
  <path class="fil19" d="M10181 7605c47,4 73,2 78,-41 6,-54 -31,-55 -80,-52 -27,48 -28,46 2,93z"/>
  <path class="fil4" d="M9442 7046c30,14 53,15 87,7 8,-46 15,-41 -12,-83 -73,-21 -86,6 -75,76z"/>
  <path class="fil19" d="M10031 7773c-25,59 0,119 61,88 37,-19 54,-107 -61,-88z"/>
  <path class="fil19" d="M10759 7966c-17,16 -39,35 -5,68 20,19 50,20 72,-1 39,-40 -11,-121 -67,-67z"/>
  <path class="fil31" d="M9154 6827c54,19 120,4 87,-60 -20,-39 -109,-54 -87,60z"/>
  <path class="fil19" d="M10032 7674c106,21 101,-64 60,-86 -58,-30 -87,25 -60,86z"/>
  <path class="fil4" d="M9672 7154c17,-73 -1,-98 -76,-76 -38,79 8,108 76,76z"/>
  <path class="fil8" d="M9011 6723c43,8 35,16 75,-6 55,-105 -107,-140 -75,6z"/>
  <path class="fil19" d="M10026 9312c124,28 127,-107 8,-84 -14,28 -16,50 -8,84z"/>
  <path class="fil19" d="M9951 7294c-112,-10 -88,76 -51,90 68,27 78,-42 51,-90z"/>
  <path class="fil19" d="M10020 9115c56,38 98,37 92,-57 -54,-32 -96,-29 -92,57z"/>
  <path class="fil19" d="M10026 8864c-37,138 132,109 73,4 -24,-12 -50,-18 -73,-4z"/>
  <path class="fil19" d="M10026 7311c118,27 130,-108 7,-84 -14,29 -15,51 -7,84z"/>
  <path class="fil11" d="M9734 7261c27,15 50,18 86,13 6,-36 3,-59 -11,-87 -66,-11 -88,7 -75,74z"/>
  <path class="fil19" d="M10025 8137c-8,34 -6,56 9,84 135,24 80,-131 -9,-84z"/>
  <path class="fil19" d="M10020 8387c45,29 43,30 91,2 10,-109 -98,-113 -91,-2z"/>
  <path class="fil19" d="M10031 8033c36,18 51,10 77,-5 31,-127 -132,-94 -77,5z"/>
  <path class="fil8" d="M8881 6617l52 2c30,-44 32,-38 8,-96 -85,-2 -95,45 -59,94z"/>
  <path class="fil19" d="M10031 7484c54,28 119,-19 69,-69 -37,-37 -110,-5 -69,69z"/>
  <path class="fil8" d="M8729 6498l73 8c8,-36 7,-59 -6,-87 -69,-16 -105,11 -67,79z"/>
  <path class="fil19" d="M10030 9416c-22,41 -14,44 5,77 123,24 92,-129 -5,-77z"/>
  <path class="fil8" d="M9300 6941c34,7 55,6 82,-9 17,-65 -8,-89 -73,-73 -14,27 -16,48 -9,82z"/>
  <path class="fil19" d="M10318 7635c-21,41 -15,31 -6,75l68 5 2 -88c-49,-10 -23,-15 -64,8z"/>
  <path class="fil13" d="M1152 4509l67 5 7 -62c-52,-21 -107,-15 -74,57z"/>
  <polyline class="fil30 str0" points="9267,7315 8612,6656 7975,7317 "/>
  <line class="fil30 str1" x1="6623" y1="2592" x2="6617" y2= "4195" />
  <line class="fil30 str0" x1="4619" y1="1957" x2="4619" y2= "1661" />
 </g>
</svg>
