<svg xmlns="http://www.w3.org/2000/svg" version="1.1" xmlns:xlink="http://www.w3.org/1999/xlink" xmlns:svgjs="http://svgjs.dev/svgjs" viewBox="0 0 600 600"><path d="M184.6678525474622 96.17720267572093C159.27518159816205 77.19814536370922 84.6678576337252 85.8368884463915 86.50031867295047 122.87877127923656C88.33277971217574 159.92065411208162 165.5579091575696 252.4599149763394 195.66261878281375 318.42849967279125C225.7673284080579 384.3970843692431 242.39035875270307 499.9729993879603 267.1285764244153 518.6902794579476C291.86679409612753 537.4075595279344 317.6521309084648 468.2976250390022 344.0919248130872 430.7321800927131C370.53171871770957 393.16673514642406 399.06576616237106 332.56462587314934 425.7673398521497 293.2976097802131C452.4689135419283 254.03059368727696 479.9558164146497 218.9520719587613 504.30136695175906 195.13008353509593C528.6469174888684 171.30809511143056 586.6312212811862 166.07248669264803 571.8406430748059 150.36567923822093C557.0500648684257 134.65887178379387 442.6521410809908 95.52274558343578 415.5578977134778 100.88923880853343C388.4636543459648 106.25573203363109 421.70973792343875 148.79500307041494 409.2751828697278 182.56463858880687C396.8406278160169 216.3342741071988 362.4165352053398 271.30809765456206 340.9505673912122 303.507051918885C319.48459957708457 335.70600618320793 297.49507982203903 386.88402030267406 280.4793759849622 375.7583641747444C263.4636721478854 364.6327080468147 254.82493160833462 283.3499754011441 238.85634436875125 236.75311515130687C222.8877571291679 190.15625490146962 210.06052349676233 115.15625998773265 184.6678525474622 96.17720267572093C159.27518159816205 77.19814536370922 84.6678576337252 85.8368884463915 86.50031867295047 122.87877127923656 " fill="hsl(37, 91%, 55%)" transform="matrix(1.0369404611424757,0,0,1.0369404611424757,-34.69399699498189,-3.5907197669068864)" stroke-width="0" stroke="hsl(340, 45%, 30%)" fill-opacity="0.49"></path></svg>